<?xml version="1.0" encoding="UTF-8"?>
<svg xmlns="http://www.w3.org/2000/svg" xmlns:xlink="http://www.w3.org/1999/xlink" viewBox="0 0 64 64" width="64px" height="64px">
<g id="surface541652">
<path style=" stroke:none;fill-rule:nonzero;fill:rgb(100%,100%,100%);fill-opacity:1;" d="M 35 9.039062 C 34.613281 9.039062 34.226562 9.175781 33.949219 9.449219 L 7.050781 36.300781 C 6.449219 36.898438 6.449219 37.851562 7.050781 38.398438 L 11.300781 42.648438 C 11.601562 42.949219 11.949219 43.101562 12.351562 43.101562 C 12.75 43.101562 13.152344 42.949219 13.402344 42.648438 L 35 21.101562 L 51 37.101562 L 51 57.25 C 49.550781 57.75 48.449219 59 48.101562 60.5 L 42 60.5 L 42 40 C 42 39.148438 41.351562 38.5 40.5 38.5 L 29.5 38.5 C 28.648438 38.5 28 39.148438 28 40 L 28 60.5 L 19 60.5 L 19 47 C 19 46.148438 18.351562 45.5 17.5 45.5 C 16.648438 45.5 16 46.148438 16 47 L 16 50.699219 C 13.550781 51.300781 11.652344 53.199219 11.152344 55.648438 C 8.699219 56.148438 6.75 58.101562 6.199219 60.5 L 2 60.5 C 1.148438 60.5 0.5 61.148438 0.5 62 C 0.5 62.851562 1.148438 63.5 2 63.5 L 49.5 63.5 C 50.351562 63.5 51 62.851562 51 62 L 51 61.5 C 51 60.648438 51.648438 60 52.5 60 C 53.351562 60 54 60.648438 54 61.5 L 54 62 C 54 62.851562 54.648438 63.5 55.5 63.5 L 57 63.5 C 57.851562 63.5 58.5 62.851562 58.5 62 C 58.5 61.148438 57.851562 60.5 57 60.5 L 56.902344 60.5 C 56.550781 59 55.449219 57.75 54 57.25 L 54 40.097656 L 56.550781 42.648438 C 56.851562 42.949219 57.199219 43.101562 57.601562 43.101562 C 58 43.101562 58.402344 42.949219 58.652344 42.648438 L 62.902344 38.398438 C 63.5 37.800781 63.5 36.851562 62.902344 36.300781 L 36.050781 9.449219 C 35.773438 9.175781 35.386719 9.039062 35 9.039062 Z M 35 12.648438 L 59.75 37.402344 L 57.652344 39.5 L 36.050781 17.949219 C 35.75 17.648438 35.398438 17.5 35 17.5 C 34.601562 17.5 34.25 17.648438 33.949219 17.949219 L 12.347656 39.5 L 10.25 37.402344 Z M 32 50.5 C 32.851562 50.5 33.5 51.148438 33.5 52 C 33.5 52.851562 32.851562 53.5 32 53.5 C 31.148438 53.5 30.5 52.851562 30.5 52 C 30.5 51.148438 31.148438 50.5 32 50.5 Z M 16 53.851562 L 16 60.5 L 9.351562 60.5 C 9.898438 59.300781 11.101562 58.5 12.5 58.5 C 13.351562 58.5 14 57.851562 14 57 C 14 55.601562 14.800781 54.398438 16 53.851562 Z M 62 60.5 C 61.171875 60.5 60.5 61.171875 60.5 62 C 60.5 62.828125 61.171875 63.5 62 63.5 C 62.828125 63.5 63.5 62.828125 63.5 62 C 63.5 61.171875 62.828125 60.5 62 60.5 Z M 62 60.5 "/>
</g>
</svg>
