<?xml version="1.0"?>
<svg xmlns:rdf="http://www.w3.org/1999/02/22-rdf-syntax-ns#" xmlns="http://www.w3.org/2000/svg" xmlns:cc="http://web.resource.org/cc/" xmlns:xlink="http://www.w3.org/1999/xlink" xmlns:dc="http://purl.org/dc/elements/1.1/" xmlns:svg="http://www.w3.org/2000/svg" text-rendering="geometricPrecision" fill-rule="evenodd" xml:space="preserve" shape-rendering="geometricPrecision" clip-rule="evenodd" image-rendering="optimizeQuality" viewBox="0 0 6.90402 6.90399">
 <g id="Capa_x0020_1">
  <path fill-rule="nonzero" d="m3.4582 0.4365l0.013859 0.013874c0.83294-0.63312 2.0322-0.56997 2.7919 0.18974 0.75971 0.7597 0.82285 1.9589 0.18974 2.7918l0.013874 0.013874-0.008477 0.008477c0.6475 0.83358 0.58876 2.0444-0.17631 2.8095-0.76506 0.76506-1.9759 0.82379-2.8095 0.17629l-0.015063 0.015079-0.010002-0.010002c-0.83404 0.66192-2.0564 0.60783-2.8268-0.16256-0.77038-0.7704-0.82449-1.9928-0.16257-2.8268l-0.0099864-0.0099864 0.015063-0.015063c-0.64747-0.83358-0.58872-2.0444 0.17632-2.8095 0.76506-0.76505 1.9759-0.82381 2.8095-0.17632l0.008477-0.008477zm2.6207 3.398l-2.2254 2.2254c0.62256 0.44257 1.4956 0.38523 2.0531-0.17225 0.55748-0.5575 0.61484-1.4306 0.17227-2.0531zm-1.8904-1.1189c0.23371-0.066871 0.47676-0.093094 0.7178-0.078717l-0.63907-0.63907c0.014377 0.24104-0.011877 0.48407-0.078732 0.71778zm-1.5318 2.1857c-0.016253-0.24564 0.0096967-0.49357 0.077863-0.73181-0.23822 0.068167-0.48616 0.094131-0.7318 0.077879l0.65393 0.65393zm0.78908-1.0209c-0.35391 0.53687-0.34962 1.2433 0.012654 1.7761 0.35387-0.53689 0.34966-1.2433-0.012654-1.7761zm2.2385-0.43506c-0.54925-0.37877-1.2861-0.37433-1.831 0.013203 0.54927 0.37872 1.2861 0.37434 1.831-0.013203zm-2.6154 2.6204l-2.2306-2.2306c-0.45668 0.62362-0.40357 1.5083 0.15934 2.0712 0.5629 0.56291 1.4476 0.616 2.0712 0.15932zm1.1008-1.8775c0.067496 0.23598 0.093613 0.48147 0.07829 0.72481l0.64652-0.64651c-0.24335 0.015323-0.48884-0.01081-0.72481-0.078306zm-2.1787-1.5322c0.24332-0.015307 0.48878 0.010764 0.72475 0.078275-0.067496-0.23595-0.093598-0.48144-0.078275-0.72475l-0.64648 0.64648zm1.0325 0.80213c-0.53285-0.36222-1.2392-0.36649-1.776-0.01267 0.53285 0.36227 1.2392 0.36651 1.776 0.01267zm-2.1793-0.40766l2.2254-2.2254c-0.62256-0.44256-1.4956-0.38518-2.0531 0.1723-0.55748 0.55748-0.61484 1.4305-0.17228 2.0531zm2.6013 0.00035067c0.38759-0.54491 0.39202-1.2818 0.013249-1.8311-0.38755 0.54491-0.39202 1.2818-0.013249 1.8311zm0.40743-2.2198l2.22 2.22c0.42862-0.62128 0.36696-1.4828-0.18509-2.0349-0.55207-0.55206-1.4136-0.61373-2.0349-0.18511z" fill="#E1001C"/>
 </g>
<metadata><rdf:RDF><cc:Work><dc:format>image/svg+xml</dc:format><dc:type rdf:resource="http://purl.org/dc/dcmitype/StillImage"/><cc:license rdf:resource="http://creativecommons.org/licenses/publicdomain/"/><dc:publisher><cc:Agent rdf:about="http://openclipart.org/"><dc:title>Openclipart</dc:title></cc:Agent></dc:publisher><dc:title>logo cruz</dc:title><dc:date>2010-05-08T12:08:55</dc:date><dc:description>clip art, clipart, cross, cruz, logo, sign, </dc:description><dc:source>http://openclipart.org/detail/59227/logo-cruz-by-jantonalcor</dc:source><dc:creator><cc:Agent><dc:title>jantonalcor</dc:title></cc:Agent></dc:creator><dc:subject><rdf:Bag><rdf:li>clip art</rdf:li><rdf:li>clipart</rdf:li><rdf:li>cross</rdf:li><rdf:li>cruz</rdf:li><rdf:li>logo</rdf:li><rdf:li>sign</rdf:li></rdf:Bag></dc:subject></cc:Work><cc:License rdf:about="http://creativecommons.org/licenses/publicdomain/"><cc:permits rdf:resource="http://creativecommons.org/ns#Reproduction"/><cc:permits rdf:resource="http://creativecommons.org/ns#Distribution"/><cc:permits rdf:resource="http://creativecommons.org/ns#DerivativeWorks"/></cc:License></rdf:RDF></metadata></svg>
